<?xml version="1.0" encoding="UTF-8"?>
<svg id="Layer_1" data-name="Layer 1" xmlns="http://www.w3.org/2000/svg" viewBox="0 0 36.68 57.58">
  <defs>
    <style>
      .cls-1 {
        fill: #04203e;
      }
    </style>
  </defs>
  <path class="cls-1" d="M30.46,57.58h-13.13l6.74-6.76c2.66-2.99,3.26-5.11,3.26-5.86v-.14c0-1.8-1.29-3.8-4.94-3.8l-7.77.05C6.73,40.85.04,34.3.02,25.58L0,13.24C-.01,5.92,5.92-.01,13.23,0l23.29.03-9.45,9.47-12.32.02c-2.71,0-5.91,3.21-5.9,5.92l.03,9.54c.01,3.72,2.69,6.54,6.11,6.57l9.92.08c6.37.05,11.28,5.48,11.73,12.36.27,4.18-.94,7.55-3.35,10.38l-2.83,3.21Z"/>
</svg>