<?xml version="1.0" encoding="UTF-8"?>
<svg id="Layer_1" data-name="Layer 1" xmlns="http://www.w3.org/2000/svg" viewBox="0 0 296.51 73.76">
  <defs>
    <style>
      .cls-1 {
        fill: #04203e;
      }
    </style>
  </defs>
  <g>
    <path class="cls-1" d="M55.92,6.46v51.08h-10.25V24.32l-13.68,33.23h-7.76L10.47,24.32v33.23H.23V6.46h11.64l16.25,37.98L44.36,6.46h11.56Z"/>
    <path class="cls-1" d="M65.84,26.22c1.63-3.17,3.85-5.61,6.66-7.32,2.8-1.71,5.94-2.56,9.4-2.56,3.02,0,5.67.61,7.94,1.83,2.27,1.22,4.09,2.76,5.45,4.61v-5.78h10.32v40.54h-10.32v-5.93c-1.32,1.9-3.14,3.48-5.45,4.72-2.32,1.24-4.99,1.87-8.01,1.87-3.42,0-6.53-.88-9.33-2.63-2.81-1.76-5.03-4.23-6.66-7.43-1.64-3.19-2.45-6.87-2.45-11.01s.82-7.73,2.45-10.9ZM93.83,30.87c-.98-1.78-2.29-3.15-3.95-4.1-1.66-.95-3.44-1.43-5.34-1.43s-3.66.46-5.27,1.39c-1.61.93-2.92,2.28-3.92,4.06-1,1.78-1.5,3.89-1.5,6.33s.5,4.57,1.5,6.4c1,1.83,2.32,3.23,3.95,4.21,1.63.98,3.38,1.46,5.23,1.46s3.68-.48,5.34-1.43c1.66-.95,2.98-2.32,3.95-4.1.98-1.78,1.46-3.92,1.46-6.4s-.49-4.62-1.46-6.4Z"/>
    <path class="cls-1" d="M149.81,20.99c2.98,3.05,4.46,7.31,4.46,12.77v23.78h-10.25v-22.39c0-3.22-.81-5.7-2.42-7.43-1.61-1.73-3.81-2.6-6.59-2.6s-5.06.87-6.7,2.6c-1.64,1.73-2.45,4.21-2.45,7.43v22.39h-10.25V17h10.25v5.05c1.37-1.76,3.11-3.13,5.23-4.13,2.12-1,4.45-1.5,6.99-1.5,4.83,0,8.73,1.53,11.71,4.57Z"/>
    <path class="cls-1" d="M175.94,25.42v19.61c0,1.37.33,2.35.99,2.96.66.61,1.77.92,3.33.92h4.76v8.64h-6.44c-8.64,0-12.95-4.2-12.95-12.59v-19.54h-4.83v-8.42h4.83V6.97h10.32v10.03h9.08v8.42h-9.08Z"/>
    <path class="cls-1" d="M193.1,10.45c-1.2-1.15-1.79-2.57-1.79-4.28s.6-3.13,1.79-4.28c1.19-1.15,2.7-1.72,4.5-1.72s3.3.57,4.5,1.72c1.2,1.15,1.79,2.57,1.79,4.28s-.6,3.14-1.79,4.28c-1.2,1.15-2.7,1.72-4.5,1.72s-3.31-.57-4.5-1.72ZM202.65,17v40.54h-10.25V17h10.25Z"/>
    <path class="cls-1" d="M212.57,26.22c1.63-3.17,3.85-5.61,6.66-7.32,2.8-1.71,5.94-2.56,9.4-2.56,3.02,0,5.67.61,7.94,1.83,2.27,1.22,4.09,2.76,5.45,4.61v-5.78h10.32v40.54h-10.32v-5.93c-1.32,1.9-3.14,3.48-5.45,4.72-2.32,1.24-4.99,1.87-8.01,1.87-3.42,0-6.53-.88-9.33-2.63-2.81-1.76-5.03-4.23-6.66-7.43-1.64-3.19-2.45-6.87-2.45-11.01s.82-7.73,2.45-10.9ZM240.56,30.87c-.98-1.78-2.29-3.15-3.95-4.1-1.66-.95-3.44-1.43-5.34-1.43s-3.66.46-5.27,1.39c-1.61.93-2.92,2.28-3.92,4.06-1,1.78-1.5,3.89-1.5,6.33s.5,4.57,1.5,6.4c1,1.83,2.32,3.23,3.95,4.21,1.63.98,3.38,1.46,5.23,1.46s3.68-.48,5.34-1.43c1.66-.95,2.98-2.32,3.95-4.1.98-1.78,1.46-3.92,1.46-6.4s-.49-4.62-1.46-6.4Z"/>
  </g>
  <path class="cls-1" d="M290.29,73.76h-13.13l6.74-6.76c2.66-2.99,3.26-5.11,3.26-5.86v-.14c0-1.8-1.29-3.8-4.94-3.8l-7.77.05c-7.88-.21-14.58-6.77-14.59-15.48l-.02-12.35c-.01-7.31,5.92-13.25,13.23-13.24l23.29.03-9.45,9.47-12.32.02c-2.71,0-5.91,3.21-5.9,5.92l.03,9.54c.01,3.72,2.69,6.54,6.11,6.57l9.92.08c6.37.05,11.28,5.48,11.73,12.36.27,4.18-.94,7.55-3.35,10.38l-2.83,3.21Z"/>
</svg>