<?xml version="1.0" encoding="UTF-8"?>
<svg id="Layer_1" data-name="Layer 1" xmlns="http://www.w3.org/2000/svg" viewBox="0 0 72.27 72.27">
  <defs>
    <style>
      .cls-1 {
        fill: #04203e;
      }

      .cls-2 {
        fill: #fff;
      }
    </style>
  </defs>
  <rect class="cls-1" width="72.27" height="72.27" rx="7.35" ry="7.35"/>
  <path class="cls-2" d="M51.11,72.72h-16.23l8.32-8.36c3.28-3.69,4.03-6.31,4.03-7.24v-.18c0-2.22-1.59-4.7-6.11-4.7l-9.6.06c-9.74-.26-18.01-8.36-18.03-19.13l-.03-15.25c-.02-9.04,7.31-16.37,16.35-16.35l28.78.04-11.67,11.7-15.23.02c-3.35,0-7.3,3.96-7.29,7.31l.04,11.79c.01,4.6,3.32,8.08,7.55,8.12l12.25.1c7.87.06,13.94,6.77,14.49,15.27.33,5.16-1.16,9.33-4.14,12.83l-3.5,3.97Z"/>
</svg>